HIERARCHY
ROOT mixamorig:Hips
{
  OFFSET 0.000000 0.000000 0.000000
  CHANNELS 6 Xposition Yposition Zposition Xrotation Yrotation Zrotation
  JOINT mixamorig:Spine
  {
    OFFSET 0.765617 22.082230 -10.903412
    CHANNELS 3 Xrotation Yrotation Zrotation
    JOINT mixamorig:Spine2
    {
      OFFSET 0.765617 22.082230 -10.903412
      CHANNELS 3 Xrotation Yrotation Zrotation
      JOINT mixamorig:Neck
      {
        OFFSET 0.000000 4.251576 0.000000
        CHANNELS 3 Xrotation Yrotation Zrotation
        JOINT mixamorig:Head
        {
          OFFSET 0.000000 4.317438 0.000000
          CHANNELS 3 Xrotation Yrotation Zrotation
          End Site
          {
            OFFSET 0.000000 1.295231 0.000000
          }
        }
      }
      JOINT mixamorig:LeftShoulder
      {
        OFFSET 16.595861 2.780659 -2.294304
        CHANNELS 3 Xrotation Yrotation Zrotation
        JOINT mixamorig:LeftArm
        {
          OFFSET 10.000000 -2.000000 0.000000
          CHANNELS 3 Xrotation Yrotation Zrotation
          JOINT mixamorig:LeftForeArm
          {
            OFFSET 23.403406 0.000000 0.000000
            CHANNELS 3 Xrotation Yrotation Zrotation
            JOINT mixamorig:LeftHand
            {
              OFFSET 24.866098 0.000000 0.000000
              CHANNELS 3 Xrotation Yrotation Zrotation
              End Site
              {
                OFFSET 7.459829 0.000000 0.000000
              }
            }
          }
        }
      }
      JOINT mixamorig:RightShoulder
      {
        OFFSET -16.595861 2.780659 2.294304
        CHANNELS 3 Xrotation Yrotation Zrotation
        JOINT mixamorig:RightArm
        {
          OFFSET -10.000000 -2.000000 0.000000
          CHANNELS 3 Xrotation Yrotation Zrotation
          JOINT mixamorig:RightForeArm
          {
            OFFSET -23.403406 0.000000 0.000000
            CHANNELS 3 Xrotation Yrotation Zrotation
            JOINT mixamorig:RightHand
            {
              OFFSET -24.866098 0.000000 0.000000
              CHANNELS 3 Xrotation Yrotation Zrotation
              End Site
              {
                OFFSET -7.459829 0.000000 0.000000
              }
            }
          }
        }
      }
    }
  }
  JOINT mixamorig:LeftUpLeg
  {
    OFFSET 10.049852 -0.406182 2.491387
    CHANNELS 3 Xrotation Yrotation Zrotation
    JOINT mixamorig:LeftLeg
    {
      OFFSET 1.911105 -34.452642 -0.244051
      CHANNELS 3 Xrotation Yrotation Zrotation
      JOINT mixamorig:LeftFoot
      {
        OFFSET -0.627677 -34.679860 23.152071
        CHANNELS 3 Xrotation Yrotation Zrotation
        JOINT mixamorig:LeftToeBase
        {
          OFFSET -0.235927 -6.465439 -6.132764
          CHANNELS 3 Xrotation Yrotation Zrotation
          End Site
          {
            OFFSET -0.070778 -1.939632 -1.839829
          }
        }
      }
    }
  }
  JOINT mixamorig:RightUpLeg
  {
    OFFSET -10.049852 0.406182 -2.491387
    CHANNELS 3 Xrotation Yrotation Zrotation
    JOINT mixamorig:RightLeg
    {
      OFFSET 2.009936 -33.278056 8.900986
      CHANNELS 3 Xrotation Yrotation Zrotation
      JOINT mixamorig:RightFoot
      {
        OFFSET -5.479649 -37.071325 18.297414
        CHANNELS 3 Xrotation Yrotation Zrotation
        JOINT mixamorig:RightToeBase
        {
          OFFSET -3.341755 -2.842212 -7.760339
          CHANNELS 3 Xrotation Yrotation Zrotation
          End Site
          {
            OFFSET -1.002526 -0.852664 -2.328102
          }
        }
      }
    }
  }
}
MOTION
Frames: 12
Frame Time: 0.033333
6.479967 0.192060 0.000000 15.000000 -1.826930 -4.153708 8.122265 -0.138160 0.329003 -26.029970 8.108678 4.605023 -0.087525 -3.276387 6.728018 -0.470808 -3.243604 6.722038 0.000000 0.000000 0.000000 0.602217 -7.006382 -9.815247 1.018337 5.288094 21.785035 0.000000 0.000000 0.000000 0.000000 0.000000 0.000000 -4.815867 -16.399502 32.538523 7.150650 -12.962187 -57.625269 0.000000 0.000000 0.000000 -5.686436 -0.274969 0.947932 -3.751009 0.278132 0.291978 -0.023974 4.360616 -4.604864 0.000000 0.000000 0.000000 -2.829711 -0.511183 -1.151651 -4.284282 -0.488285 -2.097702 -3.960940 3.431487 0.338761 0.000000 0.000000 0.000000
6.389947 0.191583 0.000000 15.000000 -1.823395 -4.140609 8.134859 -0.138590 0.329058 -26.029947 8.109872 4.589998 0.078126 -3.408998 6.736524 -0.323468 -3.394674 6.719492 0.000000 0.000000 0.000000 0.677306 -6.991157 -11.039956 0.998556 5.243835 21.550066 0.000000 0.000000 0.000000 0.000000 0.000000 0.000000 -4.917326 -16.207506 33.581059 7.360258 -13.402399 -57.391389 0.000000 0.000000 0.000000 -5.356129 -0.249318 1.261316 -4.380623 0.027995 -0.073240 -0.001684 4.006069 -4.228703 0.000000 0.000000 0.000000 -2.432903 -0.489883 -1.174675 -4.729413 -0.449028 -2.125232 -3.812879 2.851541 0.513087 0.000000 0.000000 0.000000
6.292745 0.190706 0.000000 15.000000 -1.823821 -4.143519 8.172147 -0.139553 0.329975 -26.026767 8.213638 4.590729 0.272139 -3.650066 6.826873 -0.165994 -3.656387 6.795528 0.000000 0.000000 0.000000 0.810003 -7.106022 -12.967773 0.985478 5.081134 21.960380 0.000000 0.000000 0.000000 0.000000 0.000000 0.000000 -4.955597 -15.591967 35.115575 7.831065 -14.243234 -57.428283 0.000000 0.000000 0.000000 -3.419752 -0.157306 1.631905 -6.591770 -0.087749 -0.289644 -0.054133 3.087088 -3.255462 0.000000 0.000000 0.000000 0.959124 -0.250334 -1.178940 -8.331628 -0.232147 -2.551433 -3.623698 1.646972 0.920058 0.000000 0.000000 0.000000
6.193239 0.189715 0.000000 15.000000 -1.832095 -4.176682 8.212685 -0.140379 0.331518 -26.023114 8.332772 4.621608 0.383547 -3.746001 6.953293 -0.076046 -3.765001 6.913148 0.000000 0.000000 0.000000 0.965278 -7.145930 -15.385255 1.003186 4.849360 23.403235 0.000000 0.000000 0.000000 0.000000 0.000000 0.000000 -4.869246 -14.707200 36.480995 8.306900 -15.154967 -57.275348 0.000000 0.000000 0.000000 -0.318702 -0.025694 1.890527 -9.962044 0.070708 -0.151337 -0.397218 2.306470 -2.435089 0.000000 0.000000 0.000000 5.431552 0.096249 -1.041184 -12.962210 -0.103008 -3.323357 -3.624800 0.150367 1.520567 0.000000 0.000000 0.000000
6.111363 0.189042 0.000000 15.000000 -1.844401 -4.225888 8.265202 -0.141400 0.333639 -26.021519 8.386286 4.664391 0.615760 -3.801204 7.256548 0.125407 -3.849772 7.199436 0.000000 0.000000 0.000000 1.032995 -6.809677 -17.295110 0.979626 4.487435 24.644551 0.000000 0.000000 0.000000 0.000000 0.000000 0.000000 -4.859658 -14.265296 37.471403 8.531836 -15.827527 -56.441628 0.000000 0.000000 0.000000 -0.890202 -0.047808 1.978904 -9.649734 0.006447 -0.225341 -0.478514 2.368018 -2.501675 0.000000 0.000000 0.000000 6.551348 0.245106 -0.691809 -14.185005 -0.318792 -3.891995 -4.039882 -1.317943 2.292459 0.000000 0.000000 0.000000
6.071633 0.188848 0.000000 15.000000 -1.854581 -4.267033 8.319164 -0.142519 0.335648 -26.023692 8.318640 4.695004 1.023600 -3.858854 7.793279 0.482853 -3.962873 7.706723 0.000000 0.000000 0.000000 0.994659 -6.037658 -18.773546 0.954853 4.281822 25.164561 0.000000 0.000000 0.000000 0.000000 0.000000 0.000000 -4.922524 -13.972588 38.660859 8.602544 -16.164486 -55.819583 0.000000 0.000000 0.000000 -2.672450 -0.115555 2.054717 -8.404927 -0.086615 -0.318754 -0.388433 1.837043 -1.940928 0.000000 0.000000 0.000000 6.496760 0.329058 -0.277508 -14.098338 -0.593628 -4.296892 -4.884692 -2.506156 3.148454 0.000000 0.000000 0.000000
6.075857 0.188844 0.000000 15.000000 -1.840211 -4.211959 8.327293 -0.143148 0.334818 -26.027718 8.189289 4.634678 1.354589 -3.893053 8.216185 0.773868 -4.046443 8.105573 0.000000 0.000000 0.000000 0.981039 -5.375971 -20.795773 1.059997 4.888026 24.665686 0.000000 0.000000 0.000000 0.000000 0.000000 0.000000 -5.125010 -13.844754 40.472874 8.679885 -16.508464 -55.235871 0.000000 0.000000 0.000000 -6.772630 -0.273904 1.985653 -5.531977 -0.168423 -0.367721 0.110805 0.987131 -1.042242 0.000000 0.000000 0.000000 4.246571 0.185073 -0.300108 -12.078015 -0.645545 -4.008967 -4.876573 -2.376124 3.093148 0.000000 0.000000 0.000000
6.080787 0.188594 0.000000 15.000000 -1.819238 -4.131401 8.335407 -0.143969 0.333513 -26.030404 8.102921 4.550139 1.426478 -3.952946 8.507663 0.814794 -4.120189 8.389515 0.000000 0.000000 0.000000 0.968340 -4.704210 -23.391885 1.350252 6.517271 23.475721 0.000000 0.000000 0.000000 0.000000 0.000000 0.000000 -5.294614 -13.663102 42.221468 8.895406 -17.084648 -54.762425 0.000000 0.000000 0.000000 -10.124475 -0.412518 1.844782 -3.068999 -0.158885 -0.305207 -0.046333 0.421160 -0.442774 0.000000 0.000000 0.000000 1.978794 0.029761 -0.357606 -10.247319 -0.646715 -3.668568 -4.222554 -2.305294 2.760994 0.000000 0.000000 0.000000
6.063519 0.187476 0.000000 15.000000 -1.790488 -4.021137 8.355255 -0.145329 0.331918 -26.031883 8.055764 4.435348 1.521804 -3.974646 8.668232 0.893366 -4.158290 8.542430 0.000000 0.000000 0.000000 1.070358 -4.409768 -27.101963 1.608586 7.685760 23.690265 0.000000 0.000000 0.000000 0.000000 0.000000 0.000000 -5.391842 -13.202624 44.332825 9.351233 -18.116154 -54.332272 0.000000 0.000000 0.000000 -9.529408 -0.403297 1.642358 -4.417152 -0.020723 -0.151964 -0.025202 0.031099 -0.031986 0.000000 0.000000 0.000000 2.168316 0.019776 -0.436877 -11.250844 -0.534321 -3.670539 -3.392930 -2.661678 2.515675 0.000000 0.000000 0.000000
6.035655 0.185896 0.000000 15.000000 -1.775949 -3.966727 8.416291 -0.147370 0.332280 -26.034408 7.976604 4.369399 1.717928 -4.020744 8.744796 1.072683 -4.235507 8.603639 0.000000 0.000000 0.000000 1.355458 -4.852549 -30.958451 1.565637 6.965514 25.315587 0.000000 0.000000 0.000000 0.000000 0.000000 0.000000 -5.239067 -12.230072 46.305373 9.713258 -19.101246 -53.596058 0.000000 0.000000 0.000000 -6.205931 -0.267636 1.604266 -8.196913 0.232222 0.069675 -0.036519 -0.690965 0.731391 0.000000 0.000000 0.000000 3.806505 0.166332 -0.227451 -13.445636 -0.574314 -4.122935 -2.512988 -3.180677 2.305932 0.000000 0.000000 0.000000
5.952598 0.184420 0.000000 15.000000 -1.761135 -3.911548 8.493281 -0.149847 0.332976 -26.036946 7.897658 4.300353 2.091241 -4.140460 8.981009 1.401500 -4.417548 8.808963 0.000000 0.000000 0.000000 1.592065 -5.215633 -34.063392 1.478618 6.713305 24.921616 0.000000 0.000000 0.000000 0.000000 0.000000 0.000000 -5.127827 -11.388267 48.316986 9.933441 -19.777438 -52.999175 0.000000 0.000000 0.000000 -3.366367 -0.140096 1.756538 -12.440662 0.604992 0.430847 -0.261754 -1.236674 1.318243 0.000000 0.000000 0.000000 6.254429 0.434009 0.286777 -16.459033 -0.782370 -4.981966 -1.365342 -3.570346 1.921927 0.000000 0.000000 0.000000
5.852158 0.183171 0.000000 15.000000 -1.752038 -3.876686 8.508830 -0.150530 0.332664 -26.034004 7.993082 4.265941 2.501452 -4.186124 9.371806 1.764239 -4.538235 9.167580 0.000000 0.000000 0.000000 1.364868 -4.230071 -36.187052 1.436207 7.648450 21.713151 0.000000 0.000000 0.000000 0.000000 0.000000 0.000000 -5.665566 -11.807420 51.065960 10.169214 -20.454804 -52.487680 0.000000 0.000000 0.000000 -7.212077 -0.267193 2.329971 -10.213334 0.484058 0.354639 -0.296591 -1.229082 1.310770 0.000000 0.000000 0.000000 5.220367 0.451284 0.635956 -16.012253 -0.894081 -5.074084 -0.903460 -3.323469 1.617468 0.000000 0.000000 0.000000
